<?xml version="1.0" encoding="UTF-8"?>
<svg id="Layer_1" data-name="Layer 1" xmlns="http://www.w3.org/2000/svg" viewBox="0 0 89.6 89.6">
  <path d="m87.41,30.96c-3,2.9-5.83,5.64-8.74,8.44,3.66,1.81,7.19,3.56,10.93,5.41-3.73,1.82-7.23,3.52-10.59,5.16,2.7,2.88,5.39,5.75,8.16,8.71-3.86.55-7.73,1.1-11.79,1.67,1.89,3.59,3.69,7.03,5.65,10.77-4.12-.72-7.95-1.39-11.94-2.08.67,3.98,1.32,7.84,2.02,12-3.71-1.97-7.14-3.8-10.7-5.69-.59,4.02-1.16,7.89-1.77,12.07-2.86-2.97-5.58-5.78-8.43-8.74-1.8,3.63-3.54,7.14-5.41,10.93-1.81-3.71-3.52-7.22-5.18-10.62-2.89,2.72-5.76,5.41-8.69,8.17-.55-3.84-1.1-7.71-1.67-11.74-3.61,1.89-7.06,3.7-10.77,5.65.71-4.09,1.39-7.94,2.09-11.95-4.02.68-7.89,1.34-12.01,2.03,1.95-3.66,3.78-7.1,5.69-10.7-4.03-.59-7.92-1.16-12.07-1.77,2.96-2.85,5.79-5.57,8.74-8.42-3.66-1.81-7.18-3.56-10.93-5.42,3.71-1.81,7.23-3.53,10.69-5.22-2.75-2.93-5.44-5.79-8.14-8.68,3.75-.53,7.6-1.07,11.67-1.64-1.87-3.57-3.68-7.01-5.65-10.77,4.09.71,7.9,1.38,11.92,2.08-.67-3.98-1.33-7.84-2.03-12,3.67,1.93,7.13,3.75,10.72,5.64.59-4.02,1.16-7.91,1.77-12.06,2.89,3,5.62,5.83,8.43,8.74,1.81-3.66,3.56-7.18,5.41-10.93,1.82,3.72,3.52,7.22,5.16,10.58,2.88-2.7,5.74-5.39,8.71-8.17.55,3.88,1.1,7.75,1.67,11.81,3.59-1.88,7.03-3.69,10.77-5.65-.72,4.13-1.39,7.95-2.08,11.94,3.98-.67,7.84-1.32,12-2.02-1.96,3.69-3.77,7.1-5.68,10.69,4.01.59,7.89,1.16,12.06,1.78ZM30.16,63.88c.09-.17.17-.33.26-.5-.34-.21-.65-.53-1.01-.61-2-.42-2.57-1.35-1.86-3.26.28-.74.6-1.5,1.03-2.16,3.91-5.95,7.84-11.88,11.78-17.79.22-.33.65-.71.99-.72,1.86-.07,3.73-.03,5.71-.03-.11,1.68-.21,3.22-.31,4.76-.54.09-.92.18-1.32.22-4.92.5-8.3,3.1-10.22,7.59-1.67,3.9-2.24,7.99-1.68,12.2.86,6.49,6.05,10.62,12.54,10.03,3.65-.33,6.99-2.94,7.99-6.26-1.08-.28-1.5-.18-2.1.56-.17.22-.31.47-.47.69-1.62,2.33-4.61,3.33-7.69,2.57-2.13-.53-3.41-2.24-3.53-5.39-.1-2.71.13-5.43.29-8.14.19-3.08.65-6.11,2-8.95.79-1.67,2-2.68,3.94-3.03,0,.37.02.61,0,.84-.32,4.27-.63,8.53-.96,12.8-.14,1.81-1.1,2.92-2.88,3.38-.35.09-.63.45-.94.68.34.16.69.45,1.03.45,4.72.01,9.44.01,14.16-.03,3.13-.03,5.63-1.4,7.51-3.86,2.8-3.68,4.22-7.82,3.62-12.45-.97-7.49-4.32-10.9-11.25-10.63-.28.01-.56-.01-.84-.01-.86,0-1.72,0-2.67,0,.59-7.84,1.16-15.45,1.73-23.06-.54.31-.8.66-1.04,1.02-4.67,7.02-9.35,14.04-14,21.07-.44.66-.93.94-1.72,1.04-3.09.4-6.16.87-9.24,1.37-1.4.23-2.85.59-4.09-.22-.88-.57-1.86-1.44-2.1-2.36-.16-.59.94-1.51,1.55-2.41.37.45.52.63.67.81.93,1.17,1.9,1.51,3.12,1.11,1.07-.36,1.79-1.35,1.85-2.56.06-1.27-.6-2.31-1.82-2.83-1.56-.67-3.05-.44-4.46.44-2.81,1.75-4.11,5.2-3.24,8.6.81,3.18,3.26,4.96,6.49,4.5,1.23-.17,2.44-.71,3.58-1.26,1.47-.71,2.83-1.65,4.29-2.38.88-.44,1.86-.66,2.79-.99-.05.59-.23.9-.43,1.2-3.93,5.83-7.89,11.65-11.8,17.5-1.83,2.74-4.18,4.7-7.49,5.36-.3.06-.55.42-.82.64.31.15.62.43.93.44,2.32.04,4.64.02,6.96.02,1.71,0,3.42,0,5.13,0Z"/>
  <path d="m52.72,47.23c1.35,1.31,1.89,2.98,2.27,4.7.17.76.51,1.02,1.4.7.24-2.74.49-5.55.75-8.4-.9-.38-1.33-.16-1.57.76-.15.57-.03,1.52-1.06,1.45-.76-.06-1.83-1.34-1.78-2.08.1-1.6.23-3.19.35-4.79.02-.23.09-.46.17-.87,1.55.11,3.12.1,4.63.39.65.12,1.42.72,1.74,1.32.7,1.32,1.47,2.74,1.64,4.18.47,4.08.27,8.16-1.15,12.07-.91,2.51-2.22,4.74-5.18,5.29-.08.01-.16.04-.23.05-2.72.44-3.32-.07-3.12-2.8.3-3.95.64-7.89.96-11.83,0-.02.06-.04.2-.14Z"/>
  <path d="m47.26,36.8h-5.03c1.86-2.8,3.62-5.44,5.37-8.09.09.04.18.07.27.11-.2,2.63-.41,5.27-.62,7.97Z"/>
</svg>